<svg width="399" height="464" viewBox="0 0 399 464" fill="none" xmlns="http://www.w3.org/2000/svg">
<path d="M96.6168 181.858L99.2193 166.692L101.463 163.82L108.911 158.705L106.488 153.5L101.822 152.513L87.4632 142.372L81.7198 140.847L74.002 136.808L69.6944 136.898L58.4768 152.872L53.0923 157.718L37.7466 164.089L33.3493 164.359L30.3878 156.91L28.952 151.436L31.1057 149.821L31.375 147.667L34.0672 146.5L34.4262 143.987L35.6825 143.359L36.221 141.475L34.5159 139.321L35.1441 137.347L33.3493 137.257L32.9903 138.513L26.7982 139.321L26.7084 140.129L24.4649 140.039L24.0162 138.693L21.9521 138.872L20.6958 137.436L18.9009 136.18H17.4651L13.0678 134.565L12.6191 132.501L11.3627 131.872L9.11916 128.821L9.29864 126.129L11.0935 125.68L8.7602 123.257L8.04227 120.924L10.555 119.039L11.7217 116.975L11.0935 115.45L11.5422 114.283L13.696 113.655L15.2216 113.745L12.7985 109.168L13.6062 107.642L12.978 106.835L10.555 105.758L9.74735 106.655L8.31149 106.386L4.6321 103.783L4.1834 99.9246L4.54236 98.7579L2.11935 98.5784L0.59375 94.5401L2.29883 93.0145L4.27314 93.1042L5.17055 92.1171L7.77304 93.5529L9.2089 93.1042V91.7581L11.0037 91.5786L11.6319 89.8736L14.3241 88.9761L15.401 89.6043L17.2856 87.63L16.2985 84.3096L17.1959 84.1301L18.8112 80.72L16.4779 79.3738L16.119 77.7585L14.3241 77.579L14.5036 76.5021L12.7985 76.0534L12.0806 72.1048L12.7985 69.7715L10.0166 69.2331L9.56787 67.7972L8.13201 67.6177L6.51667 65.7332L6.78589 60.5282L8.40123 60.7077L10.8242 59.9897L12.7088 58.8231L14.0549 56.4898L16.2985 59.541L17.8241 58.5539L19.1702 59.3616L19.7984 58.1052H21.1445L22.4009 56.4898L25.3623 57.6565L29.0417 54.6053L30.3878 54.9642L30.5673 53.6181L31.375 53.4386L31.9134 54.2463L34.6056 54.0668L36.3107 56.4001L37.2081 55.5924L38.9132 56.7591H40.9773L42.4131 52.9899L45.1054 53.0797L45.8233 52.272L46.5412 48.1439L48.9642 47.6055L50.4898 45.9901L50.8488 44.1953L48.2463 40.2467L49.9514 38.6314H51.9257L54.0795 35.6699L55.6948 35.0417L55.7846 34.0546L54.8872 33.5161L55.5153 32.7084L59.7332 30.9136L60.6306 31.9008L60.8101 34.1443L60.6306 37.1058L59.3742 38.8108L60.0024 41.1441L62.8741 42.58L65.3869 47.1568L68.797 48.2337L69.6944 47.067L71.7585 48.0542L73.2841 49.3105L71.1303 53.3489L74.6302 54.8745L76.3353 59.0923L75.2584 60.7974L76.6943 60.1692L78.0404 60.6179L79.1173 61.2461L81.0018 57.477L78.7583 56.2206L77.7711 54.2463L79.0275 53.1694L78.3993 51.1054L80.6429 49.7593L80.4634 47.2465L84.1428 44.8235L85.3094 42.0415L86.2068 41.862L87.9119 37.4647L87.2837 33.2469L86.2068 32.3495L87.3735 29.388L89.9759 28.7598L91.5913 30.8239L93.2964 28.7598L93.2066 35.1314L96.0783 38.6314L100.206 38.5416L101.283 39.0801L102.181 36.2981L103.527 37.016L107.745 34.8622L108.373 35.5802L109.27 34.952L110.706 36.2981L110.616 39.439L112.591 40.3364L112.232 42.0415L115.103 42.221L116.539 40.6954L114.206 36.657L114.924 35.0417L116.27 33.6058L115.462 32.6187L113.398 32.9777L112.142 31.9008L112.232 27.324L114.116 25.2599V24.0035L117.796 23.6446L118.603 22.7472L119.232 24.0035L118.783 25.6189L120.219 25.8881L120.488 26.8753L122.283 26.606L124.437 26.7855L125.603 27.7727L126.231 27.1445L126.86 23.7343L125.334 22.4779L123.898 22.6574L123.27 20.5036L124.347 19.2473L123.898 18.0806L125.244 17.1832L124.616 15.4781L126.411 12.1577L128.834 12.5167L128.654 13.1449L132.603 11.35L135.744 13.8628L134.667 15.4781L136.462 15.1192L139.603 16.7345L140.949 16.1063L144.18 16.555L144.718 14.6705L146.154 13.8628L146.603 9.55521L148.846 8.29884V7.04246L153.961 5.78609L156.743 7.04246L159.077 4.88867L161.051 6.14505L163.923 4.70919L165.179 5.78609L167.871 6.86298L170.743 5.69635L173.435 3.81178L179.179 1.65799L182.23 0.940063L184.025 2.1067L182.858 4.081L180.076 5.06816L180.435 7.22194L181.602 8.38858L180.794 9.46547L182.32 9.91418L183.127 11.4398L184.025 10.6321L185.102 10.9013L186.178 12.9654L185.371 15.7474L187.794 16.1063L188.512 18.7088L190.576 20.2344L194.614 22.0292L198.742 21.76L199.999 22.8369L201.793 22.2985L204.037 24.2728L214.357 24.9907L216.601 26.7855H219.293L220.998 25.4394L222.703 26.5163L225.306 26.0676L225.754 26.965L232.126 28.1316L231.318 32.0802H228.357L227.28 34.0546L223.152 35.8494L223.421 37.1955L221.088 38.8108L222.613 43.1184L223.331 42.221H224.588L226.831 43.0287L227.37 44.1056L230.511 44.4645L229.882 46.3491L225.036 50.1182L225.395 51.1951L224.408 52.5412L226.113 54.4258L228.088 53.3489L229.793 53.6181L229.613 55.8617L227.639 59.7205L228.267 61.8743L230.69 62.2333L234.728 64.8358L236.075 67.528L238.857 70.1305L236.613 72.2843L235.267 72.4638L229.344 70.1305L219.024 74.0791L215.703 78.4764L210.319 79.4636L204.216 83.143L203.05 103.604L194.614 119.039L196.588 130.257L203.319 137.706L210.678 140.847L223.242 152.154L229.882 154.038L236.434 160.051L238.408 166.064L244.959 182.845L249.715 199.806L254.292 206.806L261.561 212.55L265.24 217.485L269.817 219.46L276.009 224.306L288.124 219.998L291.445 219.639L294.047 217.037L296.829 216.05L301.047 216.139L303.919 217.665L306.791 221.434L307.06 227.357L314.508 229.78L320.7 235.254L324.38 257.959L330.213 261.279L345.559 267.112L354.623 272.946L360.815 278.599L377.417 286.137L393.122 303.637L397.698 314.765L397.519 318.803L392.942 332.175L389.622 336.841L353.007 352.546L354.802 362.776L352.379 369.866L328.508 396.878L314.778 414.467L311.457 416.531L306.611 417.249L297.368 416.98L292.073 414.557L288.573 423.083L293.419 447.672L286.599 462.928H254.472L253.664 462.479L233.472 449.736L206.46 434.121L194.165 430.89L186.896 425.057L183.397 419.583L171.82 413.211L169.666 410.07L168.769 405.403L170.025 401.275L173.256 398.314L189.589 395.083L195.601 390.327L198.742 389.16L211.306 388.981L220.19 387.635L223.331 388.712L229.613 392.66L242.087 395.083L263.805 390.327H257.702L253.036 391.673L248.01 390.147L245.587 387.814L244.331 384.584L244.241 380.904L245.497 377.763L249.536 374.443L256.805 372.648L260.664 372.468L264.074 373.456L270.086 372.558L271.881 371.212L272.689 368.34L274.753 365.738L277.445 363.764L280.766 362.776H284.086L287.227 364.123L289.56 366.546L290.906 370.225L290.009 375.071L286.33 379.917L283.009 385.481L291.355 384.314L293.688 374.981L295.842 371.751L298.983 369.597L301.316 361.879L300.15 353.084L299.073 349.136L294.945 343.841L291.714 334.239L284.983 330.021L278.612 327.688L265.958 317.637L243.613 305.881L234.369 299.688L209.511 293.496L198.652 288.83L195.601 284.791L188.422 262.266L183.217 255.536L177.204 252.215L163.205 238.126L144 232.652L138.526 229.69L120.488 229.78L108.193 226.28L105.142 223.139L104.693 215.332L103.706 206.717L102.091 203.576L103.078 198.819L99.5782 193.884L97.3347 182.486L96.6168 181.858ZM190.396 147.218L189.319 147.308L189.499 149.731L192.101 150L192.909 145.693L190.396 147.218Z" stroke="#4A21EF"/>
</svg>
