<svg width="24" height="24" viewBox="0 0 24 24" fill="none" xmlns="http://www.w3.org/2000/svg">
<g id="Frame" clip-path="url(#clip0_370_6843)">
<g id="Group">
<path id="Vector" d="M18.75 -0.149902C15.855 -0.149902 13.5 2.2051 13.5 5.1001C13.5 7.7941 17.712 12.5656 18.192 13.1011C18.3345 13.2586 18.537 13.3501 18.75 13.3501C18.963 13.3501 19.1655 13.2586 19.308 13.1011C19.788 12.5656 24 7.7941 24 5.1001C24 2.2051 21.645 -0.149902 18.75 -0.149902ZM18.75 7.3501C17.508 7.3501 16.5 6.3421 16.5 5.1001C16.5 3.8581 17.508 2.8501 18.75 2.8501C19.992 2.8501 21 3.8581 21 5.1001C21 6.3421 19.992 7.3501 18.75 7.3501ZM0.471 8.6611C0.331909 8.71717 0.212752 8.81353 0.128826 8.93781C0.044901 9.0621 3.89035e-05 9.20863 0 9.3586L0 23.1001C0 23.3491 0.1245 23.5816 0.33 23.7211C0.456 23.8051 0.6015 23.8501 0.75 23.8501C0.8445 23.8501 0.939 23.8321 1.029 23.7961L7.5 21.2071V5.8501L0.471 8.6611Z" fill="white"/>
<path id="Vector_2" d="M20.424 14.1031C19.998 14.5771 19.3875 14.8501 18.75 14.8501C18.1125 14.8501 17.502 14.5771 17.076 14.1031C16.923 13.9336 16.7265 13.7101 16.5 13.4446V23.8501L23.529 21.0391C23.814 20.9266 24 20.6491 24 20.3431V9.3166C22.7715 11.3971 21.129 13.3171 20.424 14.1031ZM12.4725 7.2391L9 5.8501V21.2071L15 23.6071V11.5621C14.0415 10.2706 13.041 8.7151 12.4725 7.2391Z" fill="white"/>
</g>
</g>
<defs>
<clipPath id="clip0_370_6843">
<rect width="24" height="24" fill="white"/>
</clipPath>
</defs>
</svg>
