<svg width="24" height="24" viewBox="0 0 24 24" fill="none" xmlns="http://www.w3.org/2000/svg">
<g id="Frame">
<g id="Group">
<path id="Vector" d="M11.7733 11.4473C14.5956 11.4473 16.8835 9.15937 16.8835 6.33708C16.8835 3.51479 14.5956 1.22687 11.7733 1.22687C8.95101 1.22687 6.66309 3.51479 6.66309 6.33708C6.66309 9.15937 8.95101 11.4473 11.7733 11.4473Z" fill="white"/>
<path id="Vector_2" fill-rule="evenodd" clip-rule="evenodd" d="M16.9704 22.287C17.111 22.4275 17.3016 22.5064 17.5004 22.5064C17.6991 22.5064 17.8897 22.4275 18.0304 22.287L21.7594 18.558C22.3938 17.9226 22.7501 17.0614 22.7501 16.1635C22.7501 15.2656 22.3938 14.4045 21.7594 13.769C21.2076 13.218 20.4827 12.8741 19.7069 12.7952C18.931 12.7163 18.1518 12.9074 17.5004 13.336C16.849 12.9074 16.0697 12.7163 15.2939 12.7952C14.5181 12.8741 13.7932 13.218 13.2414 13.769C12.6098 14.402 12.2538 15.2588 12.251 16.153C12.2482 17.0471 12.5988 17.9062 13.2264 18.543L16.9704 22.287Z" fill="white"/>
<path id="Vector_3" fill-rule="evenodd" clip-rule="evenodd" d="M14.227 21.6605L11.6561 19.0896C10.9485 18.372 10.5317 17.4178 10.486 16.411C10.4404 15.4042 10.7692 14.4162 11.409 13.6375C11.1795 13.6282 10.9481 13.6235 10.714 13.6235C7.62744 13.6235 4.89487 14.3956 3.19828 15.5524C1.904 16.4351 1.19043 17.5565 1.19043 18.7337V20.081C1.19092 20.4997 1.35749 20.9012 1.6536 21.1973C1.94971 21.4934 2.35119 21.66 2.76995 21.6605H14.227Z" fill="white"/>
</g>
</g>
</svg>
