<svg width="24" height="24" viewBox="0 0 24 24" fill="none" xmlns="http://www.w3.org/2000/svg">
<g id="Frame" clip-path="url(#clip0_370_6851)">
<g id="Group">
<path id="Vector" d="M11.1674 6.63483H9.97617V0.685172C9.97617 0.306797 9.66877 0 9.28955 0H4.49494C4.11572 0 3.80831 0.306797 3.80831 0.685172V6.63483H2.61713C1.17403 6.63483 0 7.80637 0 9.24647V21.3836C0 22.8237 1.17403 23.9953 2.61713 23.9953H6.59344C5.90555 23.236 5.48602 22.23 5.48602 21.1279V13.4621C5.48602 11.103 7.40798 9.18366 9.77039 9.18366H11.0871V8.41083C11.0871 7.73339 11.4065 7.1295 11.9022 6.7402C11.6635 6.6703 11.4161 6.63482 11.1674 6.63483ZM5.18156 6.63483V1.37039H8.60292V6.63483H5.18156Z" fill="white"/>
<path id="Vector_2" d="M21.1222 10.59H18.3993V8.41087C18.3993 8.01427 18.0771 7.69275 17.6797 7.69275H13.2133C12.8159 7.69275 12.4937 8.01427 12.4937 8.41087V10.59H9.7707C8.1837 10.59 6.89258 11.8784 6.89258 13.4621V18.0037H24.0004V13.4621C24.0004 11.8784 22.7093 10.59 21.1222 10.59ZM13.933 9.129H16.9601V10.59H13.933V9.129ZM6.89267 21.1279C6.89267 22.7116 8.1838 24 9.7708 24H21.1223C22.7093 24 24.0004 22.7116 24.0004 21.1279V19.4399H6.89267V21.1279Z" fill="white"/>
</g>
</g>
<defs>
<clipPath id="clip0_370_6851">
<rect width="24" height="24" fill="white"/>
</clipPath>
</defs>
</svg>
