<svg width="24" height="24" viewBox="0 0 24 24" fill="none" xmlns="http://www.w3.org/2000/svg">
<g id="Frame">
<g id="Group">
<path id="Vector" d="M11.4908 5.16363C12.8163 5.16363 13.8908 4.08912 13.8908 2.76363C13.8908 1.43815 12.8163 0.363632 11.4908 0.363632C10.1653 0.363632 9.09082 1.43815 9.09082 2.76363C9.09082 4.08912 10.1653 5.16363 11.4908 5.16363Z" fill="white"/>
<path id="Vector_2" d="M18.9091 7.81817V7.0909C19.4909 6.94545 19.8909 6.39999 19.8909 5.78181C19.8909 5.05454 19.2727 4.43636 18.5455 4.43636C17.8182 4.43636 17.2 5.05454 17.2 5.78181C17.2 6.39999 17.6364 6.90908 18.1818 7.0909V7.81817H15.9273L13.7818 6.32726C13.1636 5.92726 12.4727 5.67272 11.7455 5.67272H10.9091C10.1091 5.67272 9.38182 5.99999 8.87273 6.54545V6.10908C8.87273 5.4909 8.36364 4.98181 7.74545 4.98181H6.18182C5.56364 4.98181 5.05455 5.4909 5.05455 6.10908V6.94545C4.47273 6.98181 4 7.4909 4 8.07272V13.4545C4 14.0727 4.50909 14.5818 5.12727 14.5818H8.03636C8 14.8 7.96364 15.0182 7.92727 15.2727L7.52727 17.5273C7.49091 17.7091 7.41818 17.8545 7.30909 18L4.47273 21.6L4.43636 21.6364C4.10909 22.2909 4.32727 23.0909 4.98182 23.4182C5.16364 23.5273 5.38182 23.5636 5.6 23.5636C6.07273 23.5636 6.50909 23.3091 6.72727 22.9091L9.81818 18.9091L9.85455 18.8727C9.92727 18.7636 9.96364 18.6182 9.96364 18.5091L10.8364 15.1273L13.5273 19.0545L13.5636 22.3273C13.5636 22.8727 13.8909 23.3454 14.4 23.5273C14.5455 23.6 14.7273 23.6 14.8727 23.6C15.6 23.6 16.1818 23.0182 16.1818 22.2545L16.0364 18.5454C16.0364 18.1818 15.8909 17.8545 15.7091 17.5636C15.0909 16.6909 13.6 14.5454 13.6 14.5454C13.4182 14.2909 13.3091 14 13.3091 13.6727V9.27272L14.1091 9.78181C14.6909 10.1454 15.3818 10.3273 16.0727 10.3273H18.1818V23.2C18.1818 23.3818 18.3273 23.5636 18.5455 23.5636C18.7636 23.5636 18.9091 23.3818 18.9091 23.2V10.3273C19.5273 10.2545 20 9.70908 20 9.0909C20 8.47272 19.5273 7.8909 18.9091 7.81817ZM5.12727 13.8545C4.90909 13.8545 4.72727 13.6727 4.72727 13.4545V12.7273H5.81818C6.03636 12.7273 6.18182 12.5454 6.18182 12.3636C6.18182 12.1818 6.03636 12 5.81818 12H4.72727V11.1636H5.81818C6.03636 11.1636 6.18182 10.9818 6.18182 10.8C6.18182 10.6182 6.03636 10.4364 5.81818 10.4364H4.72727V9.56363H5.81818C6.03636 9.56363 6.18182 9.41817 6.18182 9.19999C6.18182 9.01817 6.03636 8.83636 5.81818 8.83636H4.72727V8.10908C4.72727 7.8909 4.90909 7.70908 5.12727 7.70908H8.10909V13.2727C8.10909 13.4909 8.10909 13.7091 8.07273 13.9273H5.12727V13.8545Z" fill="white"/>
</g>
</g>
</svg>
