<svg width="160" height="40" viewBox="0 0 160 40" fill="none" xmlns="http://www.w3.org/2000/svg">
<path d="M34.3296 23.7591C34.1974 23.6952 34.0964 23.6492 34.029 23.6287C34.0082 23.6057 33.9616 23.5955 33.8968 23.5955C33.8501 23.5955 33.7957 23.6057 33.7283 23.6287C33.5728 23.6287 33.4276 23.6722 33.2929 23.7591C33.1607 23.8486 33.0052 24.0021 32.8263 24.222C32.6034 24.5314 32.3235 24.8766 31.9891 25.2602C31.9191 25.3395 31.8543 25.4162 31.7895 25.4878C31.5485 25.7665 31.3463 25.9941 31.1882 26.168C31.0975 26.2779 30.9705 26.4211 30.802 26.5976C30.6361 26.774 30.4858 26.9607 30.351 27.1576C29.9726 27.5744 29.3713 28.2086 28.547 29.055C27.7202 29.9014 26.9426 30.6763 26.2065 31.3795C25.2916 32.2361 24.4336 32.9675 23.6327 33.5735C22.8292 34.177 22.2279 34.535 21.8262 34.645C21.738 34.668 21.6603 34.6782 21.5929 34.6782C21.3466 34.6782 21.1678 34.5452 21.0564 34.2819C20.9682 34.085 20.9242 33.7321 20.9242 33.2258V32.699C20.9242 32.3486 20.9345 31.9727 20.9579 31.5764C21.1574 30.0165 21.6032 28.2342 22.2953 26.2345C22.3834 26.035 22.4715 25.8228 22.5623 25.5901C22.6504 25.3599 22.7178 25.1681 22.7618 25.0147C22.8059 24.8383 22.8681 24.6516 22.9459 24.4521C23.0236 24.2552 23.0962 24.0788 23.1636 23.9253C23.1843 23.9023 23.1973 23.8716 23.1973 23.8256C23.2647 23.6952 23.3191 23.5571 23.3632 23.4139C23.4098 23.2707 23.4539 23.1454 23.498 23.0355C23.542 22.9025 23.6198 22.6928 23.7312 22.4089C23.8427 22.1225 23.9671 21.8361 24.0993 21.5497C24.2781 21.1534 24.457 20.7468 24.6358 20.33C24.7447 20.087 24.8354 19.8799 24.9028 19.7035C25.0583 19.3071 25.2086 18.9568 25.3538 18.6474C25.4989 18.3405 25.7166 17.9007 26.0043 17.3279C26.0951 17.131 26.2065 16.8983 26.3387 16.6349L27.7928 13.8731C25.6648 14.492 23.4902 15.1696 21.4996 15.8677C21.0745 16.8011 20.7142 17.645 20.4213 18.3993C20.0429 19.3787 19.6204 20.5397 19.1513 21.8796C18.9724 22.4089 18.7832 23.0457 18.5836 23.7924C18.3815 24.5416 18.2389 25.1451 18.1482 25.608C18.1275 25.7614 18.0938 25.9327 18.0471 26.1194C18.0031 26.3061 17.9694 26.4646 17.9486 26.5976C17.9046 26.728 17.8657 26.9326 17.832 27.2062C17.7983 27.4824 17.7594 27.7739 17.7154 28.0807C17.6039 28.9399 17.5469 29.7531 17.5469 30.5228C17.5469 31.4025 17.6246 32.2157 17.7801 32.9624C18.1145 34.8547 19.1072 36.031 20.7557 36.4913C20.9112 36.5373 21.0693 36.5808 21.2248 36.6242C21.3803 36.6677 21.5022 36.7009 21.5929 36.724C21.7691 36.7674 21.948 36.7879 22.1268 36.7879C22.8396 36.7879 23.6638 36.504 24.6021 35.9312C25.0013 35.6678 25.3745 35.4045 25.7218 35.1411C26.0666 34.8751 26.5072 34.512 27.0411 34.0517C27.4429 33.6784 27.8498 33.2769 28.2619 32.8473C28.674 32.4177 29.1976 31.8372 29.8326 31.0982C30.167 30.7095 30.5661 30.2492 31.0301 29.7097C31.4422 29.2264 31.9062 28.6868 32.4246 28.0807C34.0523 26.191 34.8662 25.0352 34.8662 24.6183C34.8662 24.2885 34.6873 24.0021 34.3296 23.7591ZM29.3376 10.9375L29.7678 10.1218C29.7886 10.0399 29.8404 9.91465 29.9259 9.74332C29.97 9.65637 30.0244 9.55664 30.084 9.44413C30.1514 9.33417 30.2292 9.18074 30.3173 8.98384C30.5402 8.54401 30.815 8.00956 31.1364 7.38305C31.4604 6.75655 31.7455 6.17351 31.9891 5.63395C32.2354 5.09695 32.3675 4.74917 32.3909 4.59574V4.46277C32.3909 3.936 32.0228 3.48593 31.2867 3.11259C30.8642 2.89267 30.4625 2.78271 30.084 2.78271C29.8611 2.78271 29.6486 2.82619 29.449 2.91313C29.2261 3.02309 28.8581 3.42968 28.3449 4.1329C27.8317 4.83867 27.2822 5.64162 26.6912 6.54175C26.1002 7.44443 25.5819 8.26783 25.1361 9.01708C24.9365 9.32394 24.7784 9.56687 24.6669 9.74076C24.6151 9.82003 24.1278 10.7227 23.599 11.7047C23.3709 12.124 23.1377 12.5613 22.9277 12.9526C22.5545 13.6558 22.259 14.2184 22.2279 14.2925C22.1812 14.405 22.1294 14.5227 22.0724 14.648C24.1045 13.9499 26.3024 13.2773 28.4278 12.6662L29.3376 10.9375Z" fill="#4A21EF"/>
<path d="M46.6515 22.0944C46.5271 21.6878 46.2886 21.2199 45.9309 20.6931C45.708 20.3837 45.4073 20.0436 45.0289 19.6702C44.6505 19.2969 44.2824 18.967 43.9248 18.6806C43.1005 18.1078 42.4759 17.6859 42.0534 17.4097C41.6283 17.1361 41.3069 16.9596 41.084 16.8829C40.8611 16.8062 40.6382 16.7576 40.4153 16.7346C40.1691 16.7346 39.8813 16.7627 39.5444 16.8164C39.21 16.8727 38.899 16.9443 38.6087 17.0313C38.3651 17.1412 38.0307 17.333 37.6056 17.6092C37.1831 17.8828 36.8047 18.1743 36.4704 18.4837C36.0453 18.8571 35.545 19.389 34.9645 20.0819C34.3865 20.7749 33.8732 21.4398 33.4274 22.0791C33.2279 22.386 32.992 22.8104 32.725 23.3474C32.4581 23.887 32.2351 24.3754 32.0563 24.8153C31.9604 25.0428 31.8723 25.2679 31.7893 25.4878C31.2787 26.8763 31.0195 28.1575 31.0195 29.3338C31.0195 29.4616 31.0195 29.5869 31.0299 29.7097C31.0351 29.8171 31.0429 29.9245 31.0532 30.0268C31.0973 30.5765 31.1491 30.9959 31.2036 31.2798C31.2606 31.5662 31.3435 31.8628 31.455 32.1722C31.766 33.1158 32.147 33.7986 32.5902 34.2154C33.6607 35.228 34.7545 35.8315 35.869 36.031C36.0686 36.0514 36.2578 36.0642 36.4367 36.0642C36.6362 36.0642 36.8592 36.0463 37.1054 36.0131C37.349 35.9798 37.73 35.8648 38.2407 35.6679C39.4459 35.251 40.6719 34.4046 41.9186 33.1286C43.5697 31.4358 44.8941 29.5435 45.8972 27.4543C46.0994 27.0374 46.2549 26.6845 46.3664 26.3981C46.4778 26.1143 46.5893 25.7614 46.7007 25.342C46.7448 25.1247 46.7785 24.9431 46.8018 24.7999C46.8225 24.6567 46.8329 24.5084 46.8329 24.355V23.7259C46.8329 23.0457 46.7733 22.501 46.6515 22.0944ZM43.8911 22.4729C43.8911 23.4855 43.6474 24.5749 43.1575 25.7384C42.9346 26.1782 42.6003 26.7561 42.1545 27.4722C41.7061 28.1856 41.2836 28.7968 40.8818 29.3005C39.858 30.5561 38.7305 31.5994 37.5071 32.4356C37.1261 32.699 36.8255 32.8857 36.6026 32.9956C36.3796 33.1056 36.1697 33.1951 35.9675 33.259C35.7887 33.3255 35.6228 33.3587 35.4673 33.3587C35.3118 33.3587 35.177 33.3255 35.0655 33.259C34.9308 33.2155 34.8478 33.1107 34.8141 32.947C34.7804 32.7808 34.7649 32.4791 34.7649 32.0392C34.7649 31.7094 34.7752 31.4562 34.7986 31.2798C34.8193 31.1059 34.853 30.8962 34.8997 30.6533C35.0318 30.193 35.1485 29.812 35.2496 29.5153C35.3506 29.2187 35.501 28.8607 35.7006 28.4439C36.3693 26.884 37.1831 25.3983 38.1422 23.9919C38.6528 23.2426 39.0934 22.634 39.4615 22.1609C39.8295 21.6878 40.2131 21.2531 40.6149 20.8568C41.084 20.3735 41.4624 20.0436 41.7527 19.8671C41.9523 19.7572 42.1311 19.7035 42.2867 19.7035C42.3748 19.7035 42.4655 19.7137 42.5536 19.7367C43.0228 19.8902 43.4116 20.3965 43.7252 21.2531C43.7926 21.4066 43.8366 21.5395 43.8574 21.6495C43.8807 21.7594 43.8911 21.8694 43.8911 21.9794V22.4729Z" fill="#4A21EF"/>
<path d="M67.0946 17.558C66.7602 17.4046 66.4492 17.3279 66.1589 17.3279C65.8919 17.3279 65.6457 17.4046 65.4228 17.558C65.1792 17.7345 64.6478 18.2894 63.8365 19.2253C63.0227 20.1587 62.1025 21.248 61.0761 22.4908C60.0523 23.7336 59.1037 24.9252 58.2354 26.0683C57.5433 26.9709 56.9472 27.7355 56.4469 28.362C55.9441 28.9885 55.348 29.7199 54.6585 30.5561C53.4999 31.9395 52.7638 32.6325 52.4528 32.6325C52.3621 32.6325 52.2895 32.5942 52.235 32.5174C52.178 32.4407 52.1495 32.3359 52.1495 32.2029C52.1495 32.006 52.1832 31.7375 52.2506 31.3948C52.318 31.0547 52.3854 30.7428 52.4528 30.4564C52.4968 30.3234 52.5616 30.1367 52.6524 29.8963C52.7638 29.5665 52.8753 29.2238 52.9867 28.8735C53.2977 27.8608 53.715 26.6845 54.2412 25.342C54.7648 24.0021 55.1821 23.0125 55.4931 22.3757C55.5838 22.1993 55.7056 21.9231 55.8612 21.5498C56.0167 21.1764 56.1748 20.798 56.3303 20.4118C56.4858 20.0282 56.5973 19.7367 56.6647 19.5373C56.732 19.3634 56.7632 19.1869 56.7632 19.0105C56.7632 18.3942 56.2733 17.8547 55.2935 17.3944C55.0706 17.2844 54.9021 17.2077 54.7907 17.1642C54.6792 17.1182 54.5859 17.0875 54.5082 17.0645C54.4304 17.0415 54.3241 17.0312 54.1894 17.0312C53.9898 17.0312 53.8109 17.0645 53.6554 17.131C53.4999 17.1975 53.3418 17.2946 53.1863 17.4276C52.9634 17.6245 52.7197 17.8956 52.4528 18.2357C52.1832 18.5758 51.9836 18.8903 51.8489 19.1742C51.7841 19.3301 51.6985 19.4887 51.6 19.6523C51.4989 19.8186 51.416 19.9566 51.3486 20.0666C51.1698 20.3735 50.9235 20.8619 50.6125 21.5344C50.3015 22.2044 50.006 22.8693 49.7261 23.529C49.4487 24.1888 49.2647 24.6618 49.174 24.9482L49.0755 25.2449C49.0081 25.4648 48.92 25.7052 48.8059 25.9711C48.7411 26.191 48.6789 26.4212 48.6245 26.6641C48.5675 26.9045 48.539 27.0911 48.539 27.2241C48.4068 27.9708 48.3109 28.5308 48.2564 28.9067C48.1994 29.2801 48.1709 29.5972 48.1709 29.8631V30.2262C48.1709 30.6865 48.2046 31.2158 48.272 31.8091C48.3394 32.4024 48.4508 32.8959 48.6063 33.2923C48.6737 33.4917 48.8293 33.7167 49.0755 33.9699C49.3191 34.2231 49.5757 34.4481 49.8427 34.645C50.1771 34.8879 50.6021 35.0899 51.1153 35.2562C51.6259 35.4198 52.051 35.5016 52.3854 35.5016C53.0074 35.5016 53.7436 35.1718 54.5911 34.512C55.1717 34.0517 55.7782 33.4457 56.4132 32.699C57.0483 31.9523 57.8569 30.8962 58.8367 29.5332C58.9715 29.3338 59.1166 29.1369 59.2721 28.94C59.495 28.6536 59.6609 28.4234 59.7724 28.247C59.8838 28.114 59.9849 27.9708 60.073 27.8174C60.2078 27.6639 60.3089 27.531 60.3763 27.421C60.7547 26.9147 61.0217 26.6641 61.1772 26.6641C61.2653 26.6641 61.3224 26.7178 61.3457 26.8277C61.3664 26.8712 61.3794 26.9377 61.3794 27.0246C61.3794 27.4006 61.2653 28.1575 61.045 29.3005C60.8429 30.4027 60.7418 31.336 60.7418 32.1057C60.7418 32.7859 60.8221 33.3383 60.9776 33.7551C61.0658 33.975 61.1954 34.2052 61.3612 34.4481C61.5297 34.6885 61.7008 34.8751 61.8796 35.0081C62.0585 35.1411 62.2632 35.2715 62.4991 35.4045C62.7324 35.5349 62.9164 35.6346 63.0486 35.7011C63.2067 35.7446 63.3518 35.7676 63.484 35.7676C63.5955 35.7676 63.7303 35.7497 63.8858 35.7164C64.0413 35.6832 64.1761 35.5809 64.2875 35.4045C64.3316 35.2945 64.3549 35.1846 64.3549 35.0746C64.3549 35.0516 64.3471 34.9902 64.3368 34.893C64.3264 34.7933 64.2875 34.6245 64.2201 34.3816C64.1294 34.1387 64.0854 33.8855 64.0854 33.6221C64.0854 33.4022 64.1139 33.0902 64.1709 32.6837C64.2253 32.2771 64.2875 31.9293 64.3549 31.6429C64.3757 31.5329 64.399 31.4025 64.4197 31.2465C64.4871 31.0062 64.5545 30.776 64.6219 30.5561C64.7541 29.9398 64.977 29.1036 65.2906 28.0475C65.6016 26.994 65.8919 26.1245 66.1589 25.4418L66.4933 24.3857C66.5373 24.2552 66.571 24.1453 66.5943 24.0558C66.6384 23.9024 66.6928 23.7157 66.7602 23.4958C66.8276 23.2758 66.895 23.0789 66.9624 22.9025C67.0272 22.7261 67.0946 22.5292 67.162 22.3092C67.2501 22.0663 67.3175 21.8694 67.3616 21.716C67.4082 21.5165 67.473 21.2761 67.5637 20.9897C67.6311 20.7903 67.6856 20.6164 67.7296 20.4604C67.8411 20.1101 67.937 19.7802 68.0147 19.4708C68.0925 19.1639 68.1314 18.9338 68.1314 18.7804C68.1314 18.2306 67.7866 17.824 67.0946 17.558Z" fill="#4A21EF"/>
<path d="M88.5264 24.8816C88.4357 24.6387 88.1921 24.3983 87.7903 24.1554C87.3886 23.9585 87.1216 23.6823 86.9868 23.332C86.8546 22.9791 86.7743 22.3628 86.7535 21.4832C86.7069 20.4066 86.5851 19.5883 86.3855 19.0257C86.1859 18.4657 85.8282 17.9773 85.315 17.5579C84.7577 17.0746 84.2679 16.8342 83.8454 16.8342C83.5318 16.8342 83.2415 16.9544 82.9745 17.1973C82.8864 17.2843 82.6453 17.5323 82.2565 17.9389C81.8651 18.3455 81.4427 18.7956 80.9865 19.2917C80.5277 19.7852 80.1337 20.2199 79.7994 20.5933C79.421 21.0561 78.9285 21.6724 78.3272 22.4395C77.7258 23.2118 77.1582 23.9789 76.6217 24.7487C76.4221 25.0146 76.1655 25.3547 75.8545 25.7715C75.6756 26.0579 75.4968 26.3111 75.3179 26.531C75.2531 26.641 75.1728 26.7509 75.0846 26.8609C74.8851 27.1473 74.6777 27.4439 74.4652 27.7508C74.2552 28.0602 74.0582 28.3338 73.882 28.5767C73.4569 29.1904 73.0889 29.6968 72.7778 30.0931C72.4668 30.4895 72.2439 30.7094 72.1091 30.7529C72.0651 30.7759 72.0314 30.7861 72.008 30.7861H71.9769C71.9536 30.7861 71.9303 30.7631 71.9095 30.7196V30.5867C71.9095 30.5432 71.9147 30.4665 71.9251 30.3565C71.9355 30.2466 71.9925 30.0445 72.0936 29.7479C72.1921 29.4487 72.332 29.0498 72.5109 28.5435L72.5783 28.344C72.8012 27.6843 72.9774 27.1677 73.1122 26.7944C73.247 26.421 73.4129 26.0093 73.615 25.5567C73.8146 25.1067 74.1153 24.452 74.517 23.5954C74.6051 23.3985 74.7062 23.1888 74.8177 22.9689C74.9058 22.7259 75.051 22.414 75.2531 22.0278C75.4527 21.6443 75.6419 21.276 75.8208 20.9231C76.0877 20.3964 76.2873 19.977 76.4221 19.6701C76.4895 19.5602 76.5335 19.4835 76.5569 19.44C76.5569 19.3939 76.5621 19.3172 76.5724 19.2073C76.5828 19.0973 76.5906 18.9874 76.5906 18.8774C76.5672 18.5936 76.4558 18.3455 76.2562 18.1358C76.054 17.9261 75.686 17.6909 75.152 17.4275H75.1183C74.8954 17.3175 74.727 17.2408 74.6181 17.1973C74.5041 17.1513 74.3719 17.1309 74.2164 17.1309H74.0479C73.7576 17.1309 73.4699 17.2408 73.1796 17.4607C72.8893 17.6807 72.5109 18.1307 72.0417 18.8135C71.373 19.8236 70.8494 20.7083 70.471 21.4678C70.0926 22.2273 69.6235 23.3192 69.0662 24.7487C67.8869 27.894 67.2959 30.4997 67.2959 32.5659C67.2959 33.0722 67.3296 33.5453 67.3944 33.9851C67.5525 35.0847 68.1746 35.7214 69.2684 35.8979C69.4472 35.9439 69.6183 35.9644 69.7867 35.9644H70.3699C70.5721 35.9644 70.7276 35.9593 70.8391 35.949C70.9505 35.9362 71.0438 35.9158 71.1242 35.8825C71.2019 35.8493 71.3186 35.8109 71.4741 35.7675C71.6737 35.6575 71.8758 35.5194 72.0754 35.3532C72.2776 35.1896 72.5109 34.9313 72.7778 34.5784C73.0448 34.2281 73.4025 33.732 73.8483 33.0952C74.0038 32.8523 74.2034 32.5557 74.4496 32.2028C74.6492 31.8959 74.8514 31.5993 75.051 31.3129C75.9866 29.84 76.969 28.3773 77.9928 26.9274C79.0192 25.4749 79.9212 24.2551 80.7014 23.2655C81.326 22.5188 81.7718 22.0074 82.0388 21.7312C82.3058 21.4576 82.5079 21.3195 82.6401 21.3195C82.819 21.3195 83.0082 21.5829 83.2104 22.1097C83.2752 22.2656 83.3659 22.4625 83.4773 22.7055C83.5888 22.9459 83.7002 23.1786 83.8117 23.3985C83.9439 23.7053 84.0553 23.9304 84.146 24.0736C84.2342 24.2168 84.3689 24.3753 84.5478 24.5517L84.5789 24.585C84.7137 24.7154 84.8303 24.8279 84.9314 24.9149C85.0325 25.0018 85.1543 25.0862 85.2995 25.1629C85.4446 25.2396 85.6494 25.3419 85.9163 25.4749C86.0071 25.4979 86.0848 25.5184 86.1522 25.5414C86.4399 25.6513 86.7535 25.7511 87.0879 25.838C87.2201 25.861 87.3445 25.8712 87.4559 25.8712C87.6322 25.8712 87.8007 25.838 87.9562 25.7715C88.3579 25.5746 88.5575 25.3317 88.5575 25.0453C88.5575 25.0018 88.5471 24.9481 88.5264 24.8816Z" fill="#4A21EF"/>
<path d="M98.5735 12.3797C98.5605 12.3132 98.5501 12.2544 98.5398 12.1981C98.5268 12.1444 98.5009 12.083 98.4568 12.0166V11.9833C98.3428 11.7429 98.0888 11.5333 97.687 11.3568C97.3734 11.2264 97.0727 11.1599 96.785 11.1599C96.4273 11.1599 95.9971 11.2878 95.4968 11.5384C94.9966 11.7915 94.6337 12.2595 94.4108 12.9397C94.3875 13.0522 94.3771 13.1724 94.3771 13.3028C94.3771 13.5227 94.4316 13.7452 94.543 13.9626C94.6985 14.2055 94.9448 14.4484 95.2791 14.6888C95.6135 14.9317 95.9582 15.1184 96.3159 15.2488C96.5155 15.3383 96.7176 15.3818 96.9172 15.3818C97.4304 15.3818 97.8425 15.0519 98.1536 14.3922C98.3998 13.9958 98.5346 13.469 98.5553 12.8093C98.5786 12.7223 98.589 12.6431 98.589 12.5791C98.589 12.5152 98.5838 12.4462 98.5735 12.3797ZM104.439 23.6286C104.283 23.4957 104.128 23.4292 103.972 23.4292C103.76 23.4292 103.537 23.5366 103.304 23.7488C103.195 23.8511 103.083 23.9739 102.969 24.1222C101.787 25.5746 100.367 27.1345 98.7056 28.8069C97.0468 30.4767 95.6031 31.809 94.3771 32.7986C93.952 33.149 93.6177 33.4072 93.374 33.5735C93.1278 33.7371 92.8608 33.8982 92.5705 34.0516C92.2595 34.2051 92.0133 34.2818 91.837 34.2818C91.6608 34.2818 91.513 34.2281 91.4016 34.1181C91.2668 33.9852 91.1994 33.732 91.1994 33.3587C91.1994 32.8319 91.3238 32.0724 91.5675 31.0828C91.9692 29.4999 92.7935 27.4209 94.0428 24.8484C94.1983 24.5416 94.3823 24.1605 94.5948 23.7105C94.8048 23.2604 95.0018 22.8487 95.178 22.4728C95.4683 21.923 95.6809 21.496 95.8156 21.1866C95.9478 20.8797 96.036 20.6496 96.0826 20.4936C96.1267 20.3401 96.1474 20.1969 96.1474 20.0665C96.1474 19.9131 96.137 19.7955 96.1163 19.7187C96.093 19.642 96.0593 19.55 96.0152 19.44C95.7249 19.0871 95.2454 18.7368 94.5767 18.3839V18.3507C94.3771 18.2637 94.2268 18.2075 94.1257 18.1844C94.0246 18.164 93.8743 18.1538 93.6747 18.1538C93.1615 18.1538 92.7105 18.297 92.3217 18.5808C91.9303 18.8672 91.4897 19.3633 90.9998 20.0665C90.8003 20.3964 90.5436 20.8465 90.23 21.4193C89.919 21.9895 89.6961 22.4396 89.5613 22.7694C88.8485 24.5313 88.3587 26.1142 88.0917 27.5207C87.8454 28.5537 87.7236 29.5868 87.7236 30.6199C87.7236 31.4561 87.8014 32.2821 87.9569 33.0953C88.0476 33.4686 88.1539 33.7831 88.2757 34.0337C88.3975 34.2869 88.5712 34.5452 88.7941 34.8111C88.9937 35.0515 89.1959 35.2663 89.3954 35.453C89.595 35.6396 89.8412 35.8212 90.1315 35.9977C90.7329 36.371 91.2124 36.5909 91.5675 36.6574C91.723 36.6779 91.8811 36.6906 92.0366 36.6906H92.4539C92.6431 36.6906 92.8271 36.6676 93.006 36.6242C93.9417 36.4273 95.2247 35.568 96.8498 34.0516C97.2749 33.6553 97.6974 33.2257 98.1225 32.7654C98.5449 32.3025 99.1359 31.6326 99.8928 30.7529C101.588 28.8171 102.785 27.4209 103.488 26.5643C103.729 26.2702 103.934 26.0119 104.107 25.792C104.434 25.365 104.636 25.0734 104.709 24.9149C104.797 24.7385 104.841 24.562 104.841 24.3856C104.841 24.1017 104.709 23.8486 104.439 23.6286Z" fill="#4A21EF"/>
<path d="M119.266 18.3022C119.256 18.1156 118.981 17.8547 118.447 17.5249C118.292 17.4175 118.131 17.2845 117.962 17.1311C117.797 16.9776 117.657 16.8447 117.545 16.7347C117.099 16.2054 116.61 15.878 116.073 15.7451C115.718 15.6351 115.316 15.5789 114.87 15.5789C114.536 15.5789 114.178 15.6121 113.8 15.6786C112.82 15.832 111.726 16.1619 110.524 16.6682C109.321 17.1745 108.194 17.778 107.146 18.4838C106.724 18.7676 106.39 19.0055 106.143 19.1921C105.9 19.3788 105.648 19.6089 105.392 19.8851C105.135 20.1587 104.762 20.573 104.272 21.1202C104.093 21.3401 103.914 21.6266 103.738 21.9794C103.559 22.3323 103.424 22.6494 103.336 22.9358C103.313 23.0892 103.303 23.2555 103.303 23.4294V23.8436C103.303 24.0303 103.347 24.2451 103.435 24.4855C103.502 24.6849 103.642 24.9764 103.855 25.36C103.938 25.5134 104.023 25.6592 104.106 25.7922C104.228 25.9942 104.352 26.1732 104.471 26.3317C104.539 26.3982 104.627 26.4826 104.741 26.5798C104.85 26.6795 104.961 26.7613 105.075 26.8278C105.454 27.0708 105.866 27.2677 106.312 27.4211C106.758 27.5745 107.315 27.6973 107.984 27.7842C108.94 27.9172 109.661 28.022 110.14 28.0987C110.62 28.1754 111.104 28.2675 111.594 28.3775C112.307 28.5539 112.836 28.6971 113.183 28.8071C113.528 28.917 113.766 29.027 113.901 29.1369C113.968 29.2034 114.012 29.252 114.033 29.2853C114.056 29.3185 114.072 29.3671 114.085 29.4336C114.095 29.5001 114.101 29.587 114.101 29.697C114.101 29.8504 114.09 29.9782 114.067 30.078C114.046 30.1752 114.002 30.303 113.935 30.4564C113.712 30.8963 113.243 31.3463 112.53 31.8092C112.172 32.0496 111.731 32.2976 111.208 32.5508C110.684 32.8039 110.233 32.9957 109.855 33.1287C109.409 33.3051 108.919 33.4458 108.385 33.5557C107.849 33.6657 107.336 33.745 106.846 33.7884C106.535 33.8089 106.255 33.8217 106.011 33.8217C105.096 33.8217 104.427 33.6785 104.005 33.3921C103.715 33.2156 103.546 32.9088 103.502 32.4689C103.458 32.2925 103.435 32.1288 103.435 31.9728C103.435 31.9294 103.44 31.8527 103.453 31.7427C103.463 31.6327 103.515 31.4461 103.603 31.1827C103.691 30.9167 103.738 30.6994 103.738 30.5229V30.39C103.738 30.28 103.715 30.17 103.671 30.0601C103.404 29.5103 103.056 29.2367 102.634 29.2367H102.533C102.022 29.3006 101.664 29.6637 101.462 30.3235C101.374 30.5664 101.33 30.8528 101.33 31.1827C101.33 31.4026 101.364 31.7427 101.431 32.203C101.496 32.6658 101.654 33.1389 101.898 33.6222C102.165 34.1515 102.546 34.6885 103.036 35.2383C103.525 35.7881 103.958 36.1743 104.339 36.3942C105.14 36.834 105.964 37.0872 106.812 37.1511C107.126 37.1971 107.447 37.2176 107.781 37.2176C109.21 37.2176 110.723 36.8545 112.33 36.1282C112.729 35.9748 113.154 35.7728 113.6 35.5196C114.046 35.2665 114.435 35.0184 114.769 34.778C114.948 34.6451 115.161 34.4584 115.404 34.2155C115.65 33.9751 115.879 33.7271 116.091 33.4739C116.301 33.2207 116.451 33.0187 116.542 32.8653C116.586 32.7988 116.635 32.7221 116.692 32.6326C116.747 32.5456 116.799 32.4587 116.843 32.3692C116.864 32.3027 116.887 32.249 116.91 32.203C116.954 32.0496 116.988 31.9064 117.009 31.7759C117.032 31.643 117.042 31.4358 117.042 31.1494C117.042 30.5766 116.965 30.0882 116.809 29.6816C116.654 29.275 116.374 28.7738 115.974 28.1806C115.461 27.4339 114.925 26.8713 114.367 26.4979C114.191 26.365 113.922 26.2167 113.567 26.053C113.209 25.8868 112.908 25.7615 112.665 25.672C112.216 25.5416 111.643 25.4035 110.941 25.2603C110.239 25.1196 109.544 25.002 108.852 24.9151C108.406 24.8486 108.087 24.7872 107.898 24.7335C107.709 24.6798 107.582 24.6082 107.514 24.5187C107.47 24.4522 107.447 24.3857 107.447 24.3218C107.447 24.1684 107.558 23.9791 107.781 23.7592C108.116 23.4958 108.647 23.1506 109.37 22.721C110.093 22.2914 110.791 21.936 111.459 21.6496C112.128 21.3862 112.735 21.1663 113.281 20.9898C113.828 20.8134 114.202 20.7264 114.401 20.7264C114.624 20.7264 114.78 20.7699 114.87 20.8568C114.958 20.9463 115.049 21.1432 115.137 21.4501C115.225 21.7595 115.332 22.0025 115.456 22.1763C115.578 22.3528 115.739 22.5062 115.941 22.6392C116.228 22.8361 116.508 22.9691 116.775 23.0355C116.864 23.056 116.944 23.0662 117.009 23.0662C117.211 23.0662 117.377 23.0228 117.512 22.9358C117.623 22.8693 117.706 22.7773 117.763 22.6545C117.817 22.5343 117.88 22.3426 117.947 22.0792C117.991 21.8132 118.074 21.5396 118.196 21.2532C118.32 20.9668 118.491 20.6165 118.714 20.1971C119.093 19.4939 119.284 18.9671 119.284 18.6142C119.284 18.5938 119.277 18.4889 119.266 18.3022Z" fill="#4A21EF"/>
<path d="M136.368 23.7591C136.233 23.6952 136.135 23.6492 136.068 23.6287C136.044 23.6057 136 23.5955 135.933 23.5955C135.889 23.5955 135.834 23.6057 135.767 23.6287C135.609 23.6287 135.466 23.6722 135.331 23.7591C135.199 23.8486 135.041 24.0021 134.862 24.222C134.639 24.5314 134.362 24.8766 134.028 25.2602C133.958 25.3395 133.893 25.4162 133.828 25.4878C133.584 25.7665 133.385 25.9941 133.224 26.168C133.136 26.2779 133.009 26.4211 132.841 26.5976C132.675 26.774 132.524 26.9607 132.39 27.1576C132.011 27.5744 131.407 28.2086 130.583 29.055C129.759 29.9014 128.979 30.6763 128.242 31.3795C127.33 32.2361 126.472 32.9675 125.669 33.5735C124.868 34.177 124.266 34.535 123.865 34.645C123.774 34.668 123.696 34.6782 123.629 34.6782C123.385 34.6782 123.206 34.5452 123.095 34.2819C123.007 34.085 122.96 33.7321 122.96 33.2258V32.699C122.96 32.3486 122.973 31.9727 122.994 31.5764C123.196 30.0165 123.642 28.2342 124.331 26.2345C124.422 26.035 124.51 25.8228 124.598 25.5901C124.689 25.3599 124.756 25.1681 124.8 25.0147C124.844 24.8383 124.907 24.6516 124.984 24.4521C125.062 24.2552 125.135 24.0788 125.202 23.9253C125.223 23.9023 125.236 23.8716 125.236 23.8256C125.301 23.6952 125.358 23.5571 125.402 23.4139C125.446 23.2707 125.49 23.1454 125.537 23.0355C125.581 22.9025 125.658 22.6928 125.77 22.4089C125.881 22.1225 126.003 21.8361 126.138 21.5497C126.317 21.1534 126.493 20.7468 126.672 20.33C126.783 20.087 126.874 19.8799 126.939 19.7035C127.094 19.3071 127.247 18.9568 127.392 18.6474C127.535 18.3405 127.753 17.9007 128.043 17.3279C128.131 17.131 128.242 16.8983 128.377 16.6349C129.336 14.6786 129.938 13.5688 130.184 13.3029C130.272 13.2159 130.378 13.1495 130.5 13.106C130.622 13.0625 130.84 13.0446 131.153 13.0574C131.464 13.0676 131.944 13.0958 132.589 13.1392C133.437 13.1827 134.082 13.2057 134.528 13.2057H135.565C135.699 13.2057 135.801 13.1827 135.865 13.1392C136.156 12.9193 136.296 12.638 136.285 12.2979C136.272 11.9578 136.122 11.6868 135.834 11.4899C135.655 11.4234 135.308 11.3364 134.797 11.2265C134.284 11.1165 133.727 11.027 133.126 10.9631C132.68 10.8966 132.361 10.8352 132.172 10.7815C131.983 10.7253 131.866 10.6537 131.822 10.5667C131.775 10.5233 131.755 10.4568 131.755 10.3673C131.755 10.3238 131.77 10.242 131.804 10.1218C131.837 9.99903 131.944 9.774 132.123 9.44413C132.19 9.33417 132.268 9.18074 132.356 8.98384C132.579 8.54401 132.851 8.00956 133.175 7.38305C133.499 6.75655 133.781 6.17351 134.028 5.63395C134.274 5.09695 134.406 4.74917 134.429 4.59574V4.46277C134.429 3.936 134.061 3.48593 133.325 3.11259C132.903 2.89267 132.501 2.78271 132.123 2.78271C131.9 2.78271 131.687 2.82619 131.488 2.91313C131.265 3.02309 130.897 3.42968 130.383 4.1329C129.87 4.83867 129.318 5.64162 128.73 6.54175C128.139 7.44443 127.62 8.26783 127.175 9.01708C126.972 9.32394 126.817 9.56687 126.705 9.74076C126.594 9.9172 126.506 10.0553 126.438 10.155C126.371 10.2522 126.317 10.3238 126.27 10.3673C126.226 10.4133 126.172 10.4465 126.104 10.467C126.037 10.5335 125.941 10.577 125.819 10.6C125.697 10.6204 125.508 10.6434 125.251 10.6639C124.995 10.6869 124.645 10.7099 124.199 10.7304C122.325 10.8199 120.677 10.958 119.251 11.1446C117.823 11.3313 116.809 11.5563 116.208 11.8197C115.583 12.0396 115.272 12.4795 115.272 13.1392C115.272 13.6225 115.394 13.9754 115.641 14.1953C115.729 14.2823 115.83 14.3385 115.941 14.359C116.006 14.382 116.073 14.3922 116.141 14.3922C116.231 14.3922 116.358 14.382 116.524 14.359C116.693 14.3385 116.978 14.2823 117.377 14.1953C119.049 13.8655 120.542 13.6123 121.859 13.4359C122.727 13.3259 123.362 13.2696 123.764 13.2696C123.987 13.2696 124.142 13.2824 124.233 13.3029C124.365 13.3694 124.432 13.4921 124.432 13.666C124.432 13.712 124.422 13.776 124.399 13.8655C124.399 13.9294 124.355 14.0752 124.266 14.2925C124.176 14.5124 124.064 14.7554 123.932 15.0187C123.328 16.2948 122.838 17.4225 122.46 18.3993C122.081 19.3787 121.656 20.5397 121.19 21.8796C121.011 22.4089 120.822 23.0457 120.622 23.7924C120.42 24.5416 120.275 25.1451 120.187 25.608C120.163 25.7614 120.13 25.9327 120.086 26.1194C120.042 26.3061 120.008 26.4646 119.985 26.5976C119.941 26.728 119.902 26.9326 119.868 27.2062C119.834 27.4824 119.798 27.7739 119.751 28.0807C119.64 28.9399 119.585 29.7531 119.585 30.5228C119.585 31.4025 119.663 32.2157 119.819 32.9624C120.153 34.8547 121.143 36.031 122.794 36.4913C122.95 36.5373 123.105 36.5808 123.263 36.6242C123.419 36.6677 123.541 36.7009 123.629 36.724C123.808 36.7674 123.987 36.7879 124.165 36.7879C124.878 36.7879 125.702 36.504 126.638 35.9312C127.04 35.6678 127.413 35.4045 127.758 35.1411C128.105 34.8751 128.546 34.512 129.08 34.0517C129.481 33.6784 129.888 33.2769 130.3 32.8473C130.713 32.4177 131.236 31.8372 131.871 31.0982C131.99 30.9601 132.117 30.8118 132.252 30.6558C132.838 29.9756 133.574 29.1164 134.463 28.0807C136.088 26.191 136.902 25.0352 136.902 24.6183C136.902 24.2885 136.723 24.0021 136.368 23.7591Z" fill="#4A21EF"/>
<path d="M149.374 21.4833C149.263 21.3734 149.139 21.2711 149.006 21.1713C148.872 21.0716 148.726 20.9898 148.571 20.9233C148.371 20.8133 148.221 20.7213 148.12 20.642C148.019 20.5653 147.941 20.4553 147.887 20.3121C147.83 20.1715 147.77 19.9567 147.703 19.6703C147.591 19.1205 147.355 18.6628 147 18.3022C146.643 17.9391 146.065 17.5709 145.261 17.1975C144.704 16.9316 144.17 16.7244 143.657 16.5684C143.255 16.4585 142.921 16.4048 142.654 16.4048H142.42C141.194 16.5582 140.075 17.1131 139.059 18.0695C138.045 19.0259 137.192 19.9669 136.503 20.8901C136.169 21.3529 135.782 21.9359 135.35 22.6392C134.914 23.3424 134.551 23.9919 134.261 24.5852C134.108 24.892 133.963 25.1938 133.828 25.4878C132.898 27.5054 132.374 29.2264 132.252 30.6559C132.234 30.8707 132.224 31.0778 132.224 31.2798C132.224 32.116 132.296 32.8959 132.439 33.6222C132.584 34.3484 133.004 34.9979 133.693 35.5682C134.162 35.9211 134.686 36.1742 135.264 36.3277C135.51 36.3941 135.767 36.4274 136.034 36.4274C136.345 36.4274 136.669 36.3711 137.003 36.2612C137.361 36.1282 137.794 35.8648 138.307 35.471C138.82 35.0746 139.31 34.6246 139.779 34.1183C140.469 33.3255 141.562 32.0188 143.055 30.193C144.058 28.94 144.647 28.3109 144.826 28.3109C144.96 28.3109 145.028 28.4541 145.028 28.7405V29.1369C145.028 29.3568 145.015 29.61 144.994 29.8964V30.2569C144.95 30.7863 144.927 31.2696 144.927 31.7094C144.927 32.5661 145.023 33.2974 145.212 33.9035C145.401 34.507 145.842 34.9979 146.531 35.3713C146.865 35.5682 147.166 35.6679 147.436 35.6679C147.635 35.6679 147.814 35.6142 147.97 35.5017C148.104 35.3713 148.169 35.2281 148.169 35.0746C148.169 35.0516 148.159 34.9903 148.136 34.8931C148.115 34.7934 147.99 34.5913 147.77 34.2819C147.568 34.0415 147.456 33.7321 147.436 33.3588V33.0954C147.436 32.7221 147.467 32.1723 147.534 31.446C147.713 30.0166 148.003 28.5973 148.405 27.1909C148.449 26.971 148.522 26.7076 148.62 26.3982C148.721 26.0913 148.872 25.6285 149.074 25.0148C149.185 24.7053 149.307 24.3422 149.439 23.9254C149.709 23.1787 149.836 22.6494 149.825 22.3425C149.812 22.0331 149.662 21.7493 149.374 21.4833ZM145.997 22.5727C145.997 22.6826 145.829 22.9256 145.494 23.2989C145.383 23.4523 145.217 23.662 144.994 23.9254C144.771 24.1888 144.559 24.4522 144.359 24.7156C143.511 25.7512 142.747 26.6897 142.068 27.5361C141.389 28.3825 140.958 28.894 140.782 29.0704C140.691 29.1804 140.559 29.3389 140.38 29.5486C140.202 29.7583 140.012 29.9603 139.813 30.1598C139.32 30.7326 138.742 31.331 138.074 31.9575C137.405 32.584 136.858 33.0391 136.436 33.3255C136.189 33.479 135.99 33.5557 135.834 33.5557C135.588 33.5557 135.466 33.369 135.466 32.9957C135.466 32.7553 135.521 32.4126 135.632 31.9728C136.055 30.2365 136.881 28.4004 138.107 26.4647C138.462 25.8944 138.781 25.4162 139.059 25.0301C139.338 24.6465 139.688 24.2016 140.113 23.6953C140.536 23.1659 140.899 22.7542 141.199 22.4576C141.5 22.161 141.907 21.8132 142.42 21.4194C142.799 21.11 143.094 20.8747 143.304 20.7085C143.517 20.5448 143.69 20.4349 143.823 20.3786C143.957 20.3249 144.079 20.2866 144.191 20.2635H144.292C144.426 20.2635 144.548 20.307 144.66 20.3965C144.771 20.4835 144.893 20.6701 145.028 20.9565C145.207 21.2634 145.406 21.5396 145.629 21.7799C145.873 22.0024 145.997 22.2095 145.997 22.409V22.5727Z" fill="#4A21EF"/>
<path d="M39.3445 9.84556C39.3186 9.85067 39.2927 9.85579 39.2616 9.86346C38.1341 10.1115 33.479 11.2136 28.4273 12.6661C26.3019 13.2773 24.1039 13.9498 22.0719 14.6479C20.2186 15.2821 18.5028 15.9367 17.0979 16.5837C12.5025 18.6985 11.7508 19.8032 12.5232 20.3632C13.5781 21.1278 17.4608 20.8848 18.3447 20.8183C18.4276 20.8107 18.4846 20.8925 18.4509 20.9692C18.4509 20.9692 18.1606 21.6366 18.0647 21.8591C17.7459 22.593 17.466 22.5981 17.4323 22.6058C15.5791 22.9868 10.854 22.9024 10.2371 20.6112C10.0557 19.9438 10.2501 19.082 11.0069 17.9901C12.4688 15.8805 17.9066 13.6046 23.5985 11.7046C25.7369 10.9886 27.9115 10.3263 29.9254 9.74327C34.2876 8.4877 37.8878 7.61315 38.6991 7.41881C38.795 7.39579 38.8883 7.45461 38.9116 7.54922L39.4767 9.63331C39.5 9.72793 39.4404 9.82254 39.3445 9.84556Z" fill="#4A21EF"/>
<path d="M39.6843 7.0429L40.2934 9.36481C40.309 9.42362 40.3712 9.45942 40.4308 9.44408L51.7109 6.56983C51.8094 6.54426 51.8509 6.4343 51.799 6.34991C51.5398 5.94077 50.669 4.9895 48.3932 5.51628C47.7245 5.67226 46.6385 5.60834 45.9853 5.39865C44.692 4.98439 42.8802 4.40135 42.4525 4.26327C42.3955 4.24537 42.3307 4.25815 42.2866 4.29907L41.2862 5.18385C41.2032 5.258 41.211 5.38586 41.3017 5.44979L43.3001 6.82299C43.4064 6.89715 43.396 7.05569 43.2794 7.11451L41.6309 7.55434C41.5609 7.58758 41.478 7.57224 41.4261 7.51598L40.8326 6.8639C40.5708 6.57494 40.4386 6.69513 40.0576 6.7923L39.7491 6.90993C39.6973 6.93039 39.6662 6.98665 39.6818 7.04035L39.6843 7.0429Z" fill="#4A21EF"/>
</svg>
